<?xml version="1.0" standalone="no"?>
 <!DOCTYPE svg PUBLIC "-//W3C//DTD SVG 1.1//EN" 
 "http://www.w3.org/Graphics/SVG/1.1/DTD/svg11.dtd"> 
<svg
  xmlns:svg="http://www.w3.org/2000/svg"
  xmlns="http://www.w3.org/2000/svg"
  xmlns:xlink="http://www.w3.org/1999/xlink"
  version="1.1"
  width="80.0100mm" height="80.0354mm" viewBox="0.0000 0.0000 80.0100 80.0354">
<title>SVG Image created as LED_shield-brd.svg date 2024/07/16 23:02:04 </title>
  <desc>Image generated by PCBNEW </desc>
<g style="fill:#000000; fill-opacity:1.0000;stroke:#000000; stroke-opacity:1.0000;
stroke-linecap:round; stroke-linejoin:round;"
 transform="translate(0 0) scale(1 1)">
</g>
<g style="fill:none; 
stroke:#E8B2A7; stroke-width:0.1500; stroke-opacity:1; 
stroke-linecap:round; stroke-linejoin:round;">
<g transform="rotate(-90.000000 39.5500 12.6150)">
<text x="39.5500" y="13.1150"
transform="scale(-1 1) translate(-79.100000 0)"
textLength="3.8690" font-size="1.3333" lengthAdjust="spacingAndGlyphs"
text-anchor="middle" opacity="0">J104</text>
</g>
<g class="stroked-text"><desc>J104</desc>
<path d="M39.0048 11.3293
L39.7191 11.3293
" />
<path d="M39.7191 11.3293
L39.8620 11.2817
" />
<path d="M39.8620 11.2817
L39.9572 11.1864
" />
<path d="M39.9572 11.1864
L40.0048 11.0436
" />
<path d="M40.0048 11.0436
L40.0048 10.9483
" />
<path d="M40.0048 12.3293
L40.0048 11.7579
" />
<path d="M40.0048 12.0436
L39.0048 12.0436
" />
<path d="M39.0048 12.0436
L39.1477 11.9483
" />
<path d="M39.1477 11.9483
L39.2429 11.8531
" />
<path d="M39.2429 11.8531
L39.2905 11.7579
" />
<path d="M39.0048 12.9483
L39.0048 13.0436
" />
<path d="M39.0048 13.0436
L39.0524 13.1388
" />
<path d="M39.0524 13.1388
L39.1001 13.1864
" />
<path d="M39.1001 13.1864
L39.1953 13.2340
" />
<path d="M39.1953 13.2340
L39.3858 13.2817
" />
<path d="M39.3858 13.2817
L39.6239 13.2817
" />
<path d="M39.6239 13.2817
L39.8143 13.2340
" />
<path d="M39.8143 13.2340
L39.9096 13.1864
" />
<path d="M39.9096 13.1864
L39.9572 13.1388
" />
<path d="M39.9572 13.1388
L40.0048 13.0436
" />
<path d="M40.0048 13.0436
L40.0048 12.9483
" />
<path d="M40.0048 12.9483
L39.9572 12.8531
" />
<path d="M39.9572 12.8531
L39.9096 12.8055
" />
<path d="M39.9096 12.8055
L39.8143 12.7579
" />
<path d="M39.8143 12.7579
L39.6239 12.7102
" />
<path d="M39.6239 12.7102
L39.3858 12.7102
" />
<path d="M39.3858 12.7102
L39.1953 12.7579
" />
<path d="M39.1953 12.7579
L39.1001 12.8055
" />
<path d="M39.1001 12.8055
L39.0524 12.8531
" />
<path d="M39.0524 12.8531
L39.0048 12.9483
" />
<path d="M39.3382 14.1388
L40.0048 14.1388
" />
<path d="M38.9572 13.9007
L39.6715 13.6626
" />
<path d="M39.6715 13.6626
L39.6715 14.2817
" />
</g><g transform="rotate(-90.000000 10.4500 20.6250)">
<text x="10.4500" y="21.1250"
transform="scale(-1 1) translate(-20.900000 0)"
textLength="3.8690" font-size="1.3333" lengthAdjust="spacingAndGlyphs"
text-anchor="middle" opacity="0">J106</text>
</g>
<g class="stroked-text"><desc>J106</desc>
<path d="M9.9048 19.3393
L10.6191 19.3393
" />
<path d="M10.6191 19.3393
L10.7620 19.2917
" />
<path d="M10.7620 19.2917
L10.8572 19.1964
" />
<path d="M10.8572 19.1964
L10.9048 19.0536
" />
<path d="M10.9048 19.0536
L10.9048 18.9583
" />
<path d="M10.9048 20.3393
L10.9048 19.7679
" />
<path d="M10.9048 20.0536
L9.9048 20.0536
" />
<path d="M9.9048 20.0536
L10.0477 19.9583
" />
<path d="M10.0477 19.9583
L10.1429 19.8631
" />
<path d="M10.1429 19.8631
L10.1905 19.7679
" />
<path d="M9.9048 20.9583
L9.9048 21.0536
" />
<path d="M9.9048 21.0536
L9.9524 21.1488
" />
<path d="M9.9524 21.1488
L10.0001 21.1964
" />
<path d="M10.0001 21.1964
L10.0953 21.2440
" />
<path d="M10.0953 21.2440
L10.2858 21.2917
" />
<path d="M10.2858 21.2917
L10.5239 21.2917
" />
<path d="M10.5239 21.2917
L10.7143 21.2440
" />
<path d="M10.7143 21.2440
L10.8096 21.1964
" />
<path d="M10.8096 21.1964
L10.8572 21.1488
" />
<path d="M10.8572 21.1488
L10.9048 21.0536
" />
<path d="M10.9048 21.0536
L10.9048 20.9583
" />
<path d="M10.9048 20.9583
L10.8572 20.8631
" />
<path d="M10.8572 20.8631
L10.8096 20.8155
" />
<path d="M10.8096 20.8155
L10.7143 20.7679
" />
<path d="M10.7143 20.7679
L10.5239 20.7202
" />
<path d="M10.5239 20.7202
L10.2858 20.7202
" />
<path d="M10.2858 20.7202
L10.0953 20.7679
" />
<path d="M10.0953 20.7679
L10.0001 20.8155
" />
<path d="M10.0001 20.8155
L9.9524 20.8631
" />
<path d="M9.9524 20.8631
L9.9048 20.9583
" />
<path d="M9.9048 22.1488
L9.9048 21.9583
" />
<path d="M9.9048 21.9583
L9.9524 21.8631
" />
<path d="M9.9524 21.8631
L10.0001 21.8155
" />
<path d="M10.0001 21.8155
L10.1429 21.7202
" />
<path d="M10.1429 21.7202
L10.3334 21.6726
" />
<path d="M10.3334 21.6726
L10.7143 21.6726
" />
<path d="M10.7143 21.6726
L10.8096 21.7202
" />
<path d="M10.8096 21.7202
L10.8572 21.7679
" />
<path d="M10.8572 21.7679
L10.9048 21.8631
" />
<path d="M10.9048 21.8631
L10.9048 22.0536
" />
<path d="M10.9048 22.0536
L10.8572 22.1488
" />
<path d="M10.8572 22.1488
L10.8096 22.1964
" />
<path d="M10.8096 22.1964
L10.7143 22.2440
" />
<path d="M10.7143 22.2440
L10.4762 22.2440
" />
<path d="M10.4762 22.2440
L10.3810 22.1964
" />
<path d="M10.3810 22.1964
L10.3334 22.1488
" />
<path d="M10.3334 22.1488
L10.2858 22.0536
" />
<path d="M10.2858 22.0536
L10.2858 21.8631
" />
<path d="M10.2858 21.8631
L10.3334 21.7679
" />
<path d="M10.3334 21.7679
L10.3810 21.7202
" />
<path d="M10.3810 21.7202
L10.4762 21.6726
" />
</g><g transform="rotate(-90.000000 48.4500 4.5250)">
<text x="48.4500" y="5.0250"
transform="scale(-1 1) translate(-96.900000 0)"
textLength="3.8690" font-size="1.3333" lengthAdjust="spacingAndGlyphs"
text-anchor="middle" opacity="0">J111</text>
</g>
<g class="stroked-text"><desc>J111</desc>
<path d="M47.9048 3.2393
L48.6191 3.2393
" />
<path d="M48.6191 3.2393
L48.7620 3.1917
" />
<path d="M48.7620 3.1917
L48.8572 3.0964
" />
<path d="M48.8572 3.0964
L48.9048 2.9536
" />
<path d="M48.9048 2.9536
L48.9048 2.8583
" />
<path d="M48.9048 4.2393
L48.9048 3.6679
" />
<path d="M48.9048 3.9536
L47.9048 3.9536
" />
<path d="M47.9048 3.9536
L48.0477 3.8583
" />
<path d="M48.0477 3.8583
L48.1429 3.7631
" />
<path d="M48.1429 3.7631
L48.1905 3.6679
" />
<path d="M48.9048 5.1917
L48.9048 4.6202
" />
<path d="M48.9048 4.9060
L47.9048 4.9060
" />
<path d="M47.9048 4.9060
L48.0477 4.8107
" />
<path d="M48.0477 4.8107
L48.1429 4.7155
" />
<path d="M48.1429 4.7155
L48.1905 4.6202
" />
<path d="M48.9048 6.1440
L48.9048 5.5726
" />
<path d="M48.9048 5.8583
L47.9048 5.8583
" />
<path d="M47.9048 5.8583
L48.0477 5.7631
" />
<path d="M48.0477 5.7631
L48.1429 5.6679
" />
<path d="M48.1429 5.6679
L48.1905 5.5726
" />
</g><g transform="rotate(-90.000000 74.5600 76.0250)">
<text x="74.5600" y="76.5250"
transform="scale(-1 1) translate(-149.120000 0)"
textLength="3.8690" font-size="1.3333" lengthAdjust="spacingAndGlyphs"
text-anchor="middle" opacity="0">J112</text>
</g>
<g class="stroked-text"><desc>J112</desc>
<path d="M74.0148 74.7393
L74.7291 74.7393
" />
<path d="M74.7291 74.7393
L74.8720 74.6917
" />
<path d="M74.8720 74.6917
L74.9672 74.5964
" />
<path d="M74.9672 74.5964
L75.0148 74.4536
" />
<path d="M75.0148 74.4536
L75.0148 74.3583
" />
<path d="M75.0148 75.7393
L75.0148 75.1679
" />
<path d="M75.0148 75.4536
L74.0148 75.4536
" />
<path d="M74.0148 75.4536
L74.1577 75.3583
" />
<path d="M74.1577 75.3583
L74.2529 75.2631
" />
<path d="M74.2529 75.2631
L74.3005 75.1679
" />
<path d="M75.0148 76.6917
L75.0148 76.1202
" />
<path d="M75.0148 76.4060
L74.0148 76.4060
" />
<path d="M74.0148 76.4060
L74.1577 76.3107
" />
<path d="M74.1577 76.3107
L74.2529 76.2155
" />
<path d="M74.2529 76.2155
L74.3005 76.1202
" />
<path d="M74.1101 77.0726
L74.0624 77.1202
" />
<path d="M74.0624 77.1202
L74.0148 77.2155
" />
<path d="M74.0148 77.2155
L74.0148 77.4536
" />
<path d="M74.0148 77.4536
L74.0624 77.5488
" />
<path d="M74.0624 77.5488
L74.1101 77.5964
" />
<path d="M74.1101 77.5964
L74.2053 77.6440
" />
<path d="M74.2053 77.6440
L74.3005 77.6440
" />
<path d="M74.3005 77.6440
L74.4434 77.5964
" />
<path d="M74.4434 77.5964
L75.0148 77.0250
" />
<path d="M75.0148 77.0250
L75.0148 77.6440
" />
</g><g transform="rotate(-90.000000 69.7650 44.2725)">
<text x="69.7650" y="44.7725"
transform="scale(-1 1) translate(-139.530000 0)"
textLength="3.9643" font-size="1.3333" lengthAdjust="spacingAndGlyphs"
text-anchor="start" opacity="0">A202</text>
</g>
<g class="stroked-text"><desc>A202</desc>
<path d="M69.9341 44.5617
L69.9341 45.0378
" />
<path d="M70.2198 44.4664
L69.2198 44.7998
" />
<path d="M69.2198 44.7998
L70.2198 45.1331
" />
<path d="M69.3151 45.4188
L69.2674 45.4664
" />
<path d="M69.2674 45.4664
L69.2198 45.5617
" />
<path d="M69.2198 45.5617
L69.2198 45.7998
" />
<path d="M69.2198 45.7998
L69.2674 45.8950
" />
<path d="M69.2674 45.8950
L69.3151 45.9426
" />
<path d="M69.3151 45.9426
L69.4103 45.9902
" />
<path d="M69.4103 45.9902
L69.5055 45.9902
" />
<path d="M69.5055 45.9902
L69.6484 45.9426
" />
<path d="M69.6484 45.9426
L70.2198 45.3712
" />
<path d="M70.2198 45.3712
L70.2198 45.9902
" />
<path d="M69.2198 46.6093
L69.2198 46.7045
" />
<path d="M69.2198 46.7045
L69.2674 46.7998
" />
<path d="M69.2674 46.7998
L69.3151 46.8474
" />
<path d="M69.3151 46.8474
L69.4103 46.8950
" />
<path d="M69.4103 46.8950
L69.6008 46.9426
" />
<path d="M69.6008 46.9426
L69.8389 46.9426
" />
<path d="M69.8389 46.9426
L70.0293 46.8950
" />
<path d="M70.0293 46.8950
L70.1246 46.8474
" />
<path d="M70.1246 46.8474
L70.1722 46.7998
" />
<path d="M70.1722 46.7998
L70.2198 46.7045
" />
<path d="M70.2198 46.7045
L70.2198 46.6093
" />
<path d="M70.2198 46.6093
L70.1722 46.5140
" />
<path d="M70.1722 46.5140
L70.1246 46.4664
" />
<path d="M70.1246 46.4664
L70.0293 46.4188
" />
<path d="M70.0293 46.4188
L69.8389 46.3712
" />
<path d="M69.8389 46.3712
L69.6008 46.3712
" />
<path d="M69.6008 46.3712
L69.4103 46.4188
" />
<path d="M69.4103 46.4188
L69.3151 46.4664
" />
<path d="M69.3151 46.4664
L69.2674 46.5140
" />
<path d="M69.2674 46.5140
L69.2198 46.6093
" />
<path d="M69.3151 47.3236
L69.2674 47.3712
" />
<path d="M69.2674 47.3712
L69.2198 47.4664
" />
<path d="M69.2198 47.4664
L69.2198 47.7045
" />
<path d="M69.2198 47.7045
L69.2674 47.7998
" />
<path d="M69.2674 47.7998
L69.3151 47.8474
" />
<path d="M69.3151 47.8474
L69.4103 47.8950
" />
<path d="M69.4103 47.8950
L69.5055 47.8950
" />
<path d="M69.5055 47.8950
L69.6484 47.8474
" />
<path d="M69.6484 47.8474
L70.2198 47.2759
" />
<path d="M70.2198 47.2759
L70.2198 47.8950
" />
</g><g transform="rotate(-90.000000 65.5600 76.0250)">
<text x="65.5600" y="76.5250"
transform="scale(-1 1) translate(-131.120000 0)"
textLength="3.8690" font-size="1.3333" lengthAdjust="spacingAndGlyphs"
text-anchor="middle" opacity="0">J113</text>
</g>
<g class="stroked-text"><desc>J113</desc>
<path d="M65.0148 74.7393
L65.7291 74.7393
" />
<path d="M65.7291 74.7393
L65.8720 74.6917
" />
<path d="M65.8720 74.6917
L65.9672 74.5964
" />
<path d="M65.9672 74.5964
L66.0148 74.4536
" />
<path d="M66.0148 74.4536
L66.0148 74.3583
" />
<path d="M66.0148 75.7393
L66.0148 75.1679
" />
<path d="M66.0148 75.4536
L65.0148 75.4536
" />
<path d="M65.0148 75.4536
L65.1577 75.3583
" />
<path d="M65.1577 75.3583
L65.2529 75.2631
" />
<path d="M65.2529 75.2631
L65.3005 75.1679
" />
<path d="M66.0148 76.6917
L66.0148 76.1202
" />
<path d="M66.0148 76.4060
L65.0148 76.4060
" />
<path d="M65.0148 76.4060
L65.1577 76.3107
" />
<path d="M65.1577 76.3107
L65.2529 76.2155
" />
<path d="M65.2529 76.2155
L65.3005 76.1202
" />
<path d="M65.0148 77.0250
L65.0148 77.6440
" />
<path d="M65.0148 77.6440
L65.3958 77.3107
" />
<path d="M65.3958 77.3107
L65.3958 77.4536
" />
<path d="M65.3958 77.4536
L65.4434 77.5488
" />
<path d="M65.4434 77.5488
L65.4910 77.5964
" />
<path d="M65.4910 77.5964
L65.5862 77.6440
" />
<path d="M65.5862 77.6440
L65.8243 77.6440
" />
<path d="M65.8243 77.6440
L65.9196 77.5964
" />
<path d="M65.9196 77.5964
L65.9672 77.5488
" />
<path d="M65.9672 77.5488
L66.0148 77.4536
" />
<path d="M66.0148 77.4536
L66.0148 77.1679
" />
<path d="M66.0148 77.1679
L65.9672 77.0726
" />
<path d="M65.9672 77.0726
L65.9196 77.0250
" />
</g><g transform="rotate(-90.000000 49.5500 12.6150)">
<text x="49.5500" y="13.1150"
transform="scale(-1 1) translate(-99.100000 0)"
textLength="3.8690" font-size="1.3333" lengthAdjust="spacingAndGlyphs"
text-anchor="middle" opacity="0">J103</text>
</g>
<g class="stroked-text"><desc>J103</desc>
<path d="M49.0048 11.3293
L49.7191 11.3293
" />
<path d="M49.7191 11.3293
L49.8620 11.2817
" />
<path d="M49.8620 11.2817
L49.9572 11.1864
" />
<path d="M49.9572 11.1864
L50.0048 11.0436
" />
<path d="M50.0048 11.0436
L50.0048 10.9483
" />
<path d="M50.0048 12.3293
L50.0048 11.7579
" />
<path d="M50.0048 12.0436
L49.0048 12.0436
" />
<path d="M49.0048 12.0436
L49.1477 11.9483
" />
<path d="M49.1477 11.9483
L49.2429 11.8531
" />
<path d="M49.2429 11.8531
L49.2905 11.7579
" />
<path d="M49.0048 12.9483
L49.0048 13.0436
" />
<path d="M49.0048 13.0436
L49.0524 13.1388
" />
<path d="M49.0524 13.1388
L49.1001 13.1864
" />
<path d="M49.1001 13.1864
L49.1953 13.2340
" />
<path d="M49.1953 13.2340
L49.3858 13.2817
" />
<path d="M49.3858 13.2817
L49.6239 13.2817
" />
<path d="M49.6239 13.2817
L49.8143 13.2340
" />
<path d="M49.8143 13.2340
L49.9096 13.1864
" />
<path d="M49.9096 13.1864
L49.9572 13.1388
" />
<path d="M49.9572 13.1388
L50.0048 13.0436
" />
<path d="M50.0048 13.0436
L50.0048 12.9483
" />
<path d="M50.0048 12.9483
L49.9572 12.8531
" />
<path d="M49.9572 12.8531
L49.9096 12.8055
" />
<path d="M49.9096 12.8055
L49.8143 12.7579
" />
<path d="M49.8143 12.7579
L49.6239 12.7102
" />
<path d="M49.6239 12.7102
L49.3858 12.7102
" />
<path d="M49.3858 12.7102
L49.1953 12.7579
" />
<path d="M49.1953 12.7579
L49.1001 12.8055
" />
<path d="M49.1001 12.8055
L49.0524 12.8531
" />
<path d="M49.0524 12.8531
L49.0048 12.9483
" />
<path d="M49.0048 13.6150
L49.0048 14.2340
" />
<path d="M49.0048 14.2340
L49.3858 13.9007
" />
<path d="M49.3858 13.9007
L49.3858 14.0436
" />
<path d="M49.3858 14.0436
L49.4334 14.1388
" />
<path d="M49.4334 14.1388
L49.4810 14.1864
" />
<path d="M49.4810 14.1864
L49.5762 14.2340
" />
<path d="M49.5762 14.2340
L49.8143 14.2340
" />
<path d="M49.8143 14.2340
L49.9096 14.1864
" />
<path d="M49.9096 14.1864
L49.9572 14.1388
" />
<path d="M49.9572 14.1388
L50.0048 14.0436
" />
<path d="M50.0048 14.0436
L50.0048 13.7579
" />
<path d="M50.0048 13.7579
L49.9572 13.6626
" />
<path d="M49.9572 13.6626
L49.9096 13.6150
" />
</g><g transform="rotate(-90.000000 57.4500 4.5250)">
<text x="57.4500" y="5.0250"
transform="scale(-1 1) translate(-114.900000 0)"
textLength="3.8690" font-size="1.3333" lengthAdjust="spacingAndGlyphs"
text-anchor="middle" opacity="0">J110</text>
</g>
<g class="stroked-text"><desc>J110</desc>
<path d="M56.9048 3.2393
L57.6191 3.2393
" />
<path d="M57.6191 3.2393
L57.7620 3.1917
" />
<path d="M57.7620 3.1917
L57.8572 3.0964
" />
<path d="M57.8572 3.0964
L57.9048 2.9536
" />
<path d="M57.9048 2.9536
L57.9048 2.8583
" />
<path d="M57.9048 4.2393
L57.9048 3.6679
" />
<path d="M57.9048 3.9536
L56.9048 3.9536
" />
<path d="M56.9048 3.9536
L57.0477 3.8583
" />
<path d="M57.0477 3.8583
L57.1429 3.7631
" />
<path d="M57.1429 3.7631
L57.1905 3.6679
" />
<path d="M57.9048 5.1917
L57.9048 4.6202
" />
<path d="M57.9048 4.9060
L56.9048 4.9060
" />
<path d="M56.9048 4.9060
L57.0477 4.8107
" />
<path d="M57.0477 4.8107
L57.1429 4.7155
" />
<path d="M57.1429 4.7155
L57.1905 4.6202
" />
<path d="M56.9048 5.8107
L56.9048 5.9060
" />
<path d="M56.9048 5.9060
L56.9524 6.0012
" />
<path d="M56.9524 6.0012
L57.0001 6.0488
" />
<path d="M57.0001 6.0488
L57.0953 6.0964
" />
<path d="M57.0953 6.0964
L57.2858 6.1440
" />
<path d="M57.2858 6.1440
L57.5239 6.1440
" />
<path d="M57.5239 6.1440
L57.7143 6.0964
" />
<path d="M57.7143 6.0964
L57.8096 6.0488
" />
<path d="M57.8096 6.0488
L57.8572 6.0012
" />
<path d="M57.8572 6.0012
L57.9048 5.9060
" />
<path d="M57.9048 5.9060
L57.9048 5.8107
" />
<path d="M57.9048 5.8107
L57.8572 5.7155
" />
<path d="M57.8572 5.7155
L57.8096 5.6679
" />
<path d="M57.8096 5.6679
L57.7143 5.6202
" />
<path d="M57.7143 5.6202
L57.5239 5.5726
" />
<path d="M57.5239 5.5726
L57.2858 5.5726
" />
<path d="M57.2858 5.5726
L57.0953 5.6202
" />
<path d="M57.0953 5.6202
L57.0001 5.6679
" />
<path d="M57.0001 5.6679
L56.9524 5.7155
" />
<path d="M56.9524 5.7155
L56.9048 5.8107
" />
</g><g transform="rotate(-90.000000 4.5000 63.0250)">
<text x="4.5000" y="63.5250"
transform="scale(-1 1) translate(-9.000000 0)"
textLength="3.8690" font-size="1.3333" lengthAdjust="spacingAndGlyphs"
text-anchor="middle" opacity="0">J301</text>
</g>
<g class="stroked-text"><desc>J301</desc>
<path d="M3.9548 61.7393
L4.6691 61.7393
" />
<path d="M4.6691 61.7393
L4.8120 61.6917
" />
<path d="M4.8120 61.6917
L4.9072 61.5964
" />
<path d="M4.9072 61.5964
L4.9548 61.4536
" />
<path d="M4.9548 61.4536
L4.9548 61.3583
" />
<path d="M3.9548 62.1202
L3.9548 62.7393
" />
<path d="M3.9548 62.7393
L4.3358 62.4060
" />
<path d="M4.3358 62.4060
L4.3358 62.5488
" />
<path d="M4.3358 62.5488
L4.3834 62.6440
" />
<path d="M4.3834 62.6440
L4.4310 62.6917
" />
<path d="M4.4310 62.6917
L4.5262 62.7393
" />
<path d="M4.5262 62.7393
L4.7643 62.7393
" />
<path d="M4.7643 62.7393
L4.8596 62.6917
" />
<path d="M4.8596 62.6917
L4.9072 62.6440
" />
<path d="M4.9072 62.6440
L4.9548 62.5488
" />
<path d="M4.9548 62.5488
L4.9548 62.2631
" />
<path d="M4.9548 62.2631
L4.9072 62.1679
" />
<path d="M4.9072 62.1679
L4.8596 62.1202
" />
<path d="M3.9548 63.3583
L3.9548 63.4536
" />
<path d="M3.9548 63.4536
L4.0024 63.5488
" />
<path d="M4.0024 63.5488
L4.0501 63.5964
" />
<path d="M4.0501 63.5964
L4.1453 63.6440
" />
<path d="M4.1453 63.6440
L4.3358 63.6917
" />
<path d="M4.3358 63.6917
L4.5739 63.6917
" />
<path d="M4.5739 63.6917
L4.7643 63.6440
" />
<path d="M4.7643 63.6440
L4.8596 63.5964
" />
<path d="M4.8596 63.5964
L4.9072 63.5488
" />
<path d="M4.9072 63.5488
L4.9548 63.4536
" />
<path d="M4.9548 63.4536
L4.9548 63.3583
" />
<path d="M4.9548 63.3583
L4.9072 63.2631
" />
<path d="M4.9072 63.2631
L4.8596 63.2155
" />
<path d="M4.8596 63.2155
L4.7643 63.1679
" />
<path d="M4.7643 63.1679
L4.5739 63.1202
" />
<path d="M4.5739 63.1202
L4.3358 63.1202
" />
<path d="M4.3358 63.1202
L4.1453 63.1679
" />
<path d="M4.1453 63.1679
L4.0501 63.2155
" />
<path d="M4.0501 63.2155
L4.0024 63.2631
" />
<path d="M4.0024 63.2631
L3.9548 63.3583
" />
<path d="M4.9548 64.6440
L4.9548 64.0726
" />
<path d="M4.9548 64.3583
L3.9548 64.3583
" />
<path d="M3.9548 64.3583
L4.0977 64.2631
" />
<path d="M4.0977 64.2631
L4.1929 64.1679
" />
<path d="M4.1929 64.1679
L4.2405 64.0726
" />
</g><g transform="rotate(-90.000000 69.5000 67.5250)">
<text x="69.5000" y="68.0250"
transform="scale(-1 1) translate(-139.000000 0)"
textLength="3.8690" font-size="1.3333" lengthAdjust="spacingAndGlyphs"
text-anchor="middle" opacity="0">J105</text>
</g>
<g class="stroked-text"><desc>J105</desc>
<path d="M68.9548 66.2393
L69.6691 66.2393
" />
<path d="M69.6691 66.2393
L69.8120 66.1917
" />
<path d="M69.8120 66.1917
L69.9072 66.0964
" />
<path d="M69.9072 66.0964
L69.9548 65.9536
" />
<path d="M69.9548 65.9536
L69.9548 65.8583
" />
<path d="M69.9548 67.2393
L69.9548 66.6679
" />
<path d="M69.9548 66.9536
L68.9548 66.9536
" />
<path d="M68.9548 66.9536
L69.0977 66.8583
" />
<path d="M69.0977 66.8583
L69.1929 66.7631
" />
<path d="M69.1929 66.7631
L69.2405 66.6679
" />
<path d="M68.9548 67.8583
L68.9548 67.9536
" />
<path d="M68.9548 67.9536
L69.0024 68.0488
" />
<path d="M69.0024 68.0488
L69.0501 68.0964
" />
<path d="M69.0501 68.0964
L69.1453 68.1440
" />
<path d="M69.1453 68.1440
L69.3358 68.1917
" />
<path d="M69.3358 68.1917
L69.5739 68.1917
" />
<path d="M69.5739 68.1917
L69.7643 68.1440
" />
<path d="M69.7643 68.1440
L69.8596 68.0964
" />
<path d="M69.8596 68.0964
L69.9072 68.0488
" />
<path d="M69.9072 68.0488
L69.9548 67.9536
" />
<path d="M69.9548 67.9536
L69.9548 67.8583
" />
<path d="M69.9548 67.8583
L69.9072 67.7631
" />
<path d="M69.9072 67.7631
L69.8596 67.7155
" />
<path d="M69.8596 67.7155
L69.7643 67.6679
" />
<path d="M69.7643 67.6679
L69.5739 67.6202
" />
<path d="M69.5739 67.6202
L69.3358 67.6202
" />
<path d="M69.3358 67.6202
L69.1453 67.6679
" />
<path d="M69.1453 67.6679
L69.0501 67.7155
" />
<path d="M69.0501 67.7155
L69.0024 67.7631
" />
<path d="M69.0024 67.7631
L68.9548 67.8583
" />
<path d="M68.9548 69.0964
L68.9548 68.6202
" />
<path d="M68.9548 68.6202
L69.4310 68.5726
" />
<path d="M69.4310 68.5726
L69.3834 68.6202
" />
<path d="M69.3834 68.6202
L69.3358 68.7155
" />
<path d="M69.3358 68.7155
L69.3358 68.9536
" />
<path d="M69.3358 68.9536
L69.3834 69.0488
" />
<path d="M69.3834 69.0488
L69.4310 69.0964
" />
<path d="M69.4310 69.0964
L69.5262 69.1440
" />
<path d="M69.5262 69.1440
L69.7643 69.1440
" />
<path d="M69.7643 69.1440
L69.8596 69.0964
" />
<path d="M69.8596 69.0964
L69.9072 69.0488
" />
<path d="M69.9072 69.0488
L69.9548 68.9536
" />
<path d="M69.9548 68.9536
L69.9548 68.7155
" />
<path d="M69.9548 68.7155
L69.9072 68.6202
" />
<path d="M69.9072 68.6202
L69.8596 68.5726
" />
</g><g transform="rotate(-90.000000 56.5600 76.0250)">
<text x="56.5600" y="76.5250"
transform="scale(-1 1) translate(-113.120000 0)"
textLength="3.8690" font-size="1.3333" lengthAdjust="spacingAndGlyphs"
text-anchor="middle" opacity="0">J114</text>
</g>
<g class="stroked-text"><desc>J114</desc>
<path d="M56.0148 74.7393
L56.7291 74.7393
" />
<path d="M56.7291 74.7393
L56.8720 74.6917
" />
<path d="M56.8720 74.6917
L56.9672 74.5964
" />
<path d="M56.9672 74.5964
L57.0148 74.4536
" />
<path d="M57.0148 74.4536
L57.0148 74.3583
" />
<path d="M57.0148 75.7393
L57.0148 75.1679
" />
<path d="M57.0148 75.4536
L56.0148 75.4536
" />
<path d="M56.0148 75.4536
L56.1577 75.3583
" />
<path d="M56.1577 75.3583
L56.2529 75.2631
" />
<path d="M56.2529 75.2631
L56.3005 75.1679
" />
<path d="M57.0148 76.6917
L57.0148 76.1202
" />
<path d="M57.0148 76.4060
L56.0148 76.4060
" />
<path d="M56.0148 76.4060
L56.1577 76.3107
" />
<path d="M56.1577 76.3107
L56.2529 76.2155
" />
<path d="M56.2529 76.2155
L56.3005 76.1202
" />
<path d="M56.3482 77.5488
L57.0148 77.5488
" />
<path d="M55.9672 77.3107
L56.6815 77.0726
" />
<path d="M56.6815 77.0726
L56.6815 77.6917
" />
</g><g transform="rotate(-90.000000 66.4500 4.5250)">
<text x="66.4500" y="5.0250"
transform="scale(-1 1) translate(-132.900000 0)"
textLength="3.8690" font-size="1.3333" lengthAdjust="spacingAndGlyphs"
text-anchor="middle" opacity="0">J109</text>
</g>
<g class="stroked-text"><desc>J109</desc>
<path d="M65.9048 3.2393
L66.6191 3.2393
" />
<path d="M66.6191 3.2393
L66.7620 3.1917
" />
<path d="M66.7620 3.1917
L66.8572 3.0964
" />
<path d="M66.8572 3.0964
L66.9048 2.9536
" />
<path d="M66.9048 2.9536
L66.9048 2.8583
" />
<path d="M66.9048 4.2393
L66.9048 3.6679
" />
<path d="M66.9048 3.9536
L65.9048 3.9536
" />
<path d="M65.9048 3.9536
L66.0477 3.8583
" />
<path d="M66.0477 3.8583
L66.1429 3.7631
" />
<path d="M66.1429 3.7631
L66.1905 3.6679
" />
<path d="M65.9048 4.8583
L65.9048 4.9536
" />
<path d="M65.9048 4.9536
L65.9524 5.0488
" />
<path d="M65.9524 5.0488
L66.0001 5.0964
" />
<path d="M66.0001 5.0964
L66.0953 5.1440
" />
<path d="M66.0953 5.1440
L66.2858 5.1917
" />
<path d="M66.2858 5.1917
L66.5239 5.1917
" />
<path d="M66.5239 5.1917
L66.7143 5.1440
" />
<path d="M66.7143 5.1440
L66.8096 5.0964
" />
<path d="M66.8096 5.0964
L66.8572 5.0488
" />
<path d="M66.8572 5.0488
L66.9048 4.9536
" />
<path d="M66.9048 4.9536
L66.9048 4.8583
" />
<path d="M66.9048 4.8583
L66.8572 4.7631
" />
<path d="M66.8572 4.7631
L66.8096 4.7155
" />
<path d="M66.8096 4.7155
L66.7143 4.6679
" />
<path d="M66.7143 4.6679
L66.5239 4.6202
" />
<path d="M66.5239 4.6202
L66.2858 4.6202
" />
<path d="M66.2858 4.6202
L66.0953 4.6679
" />
<path d="M66.0953 4.6679
L66.0001 4.7155
" />
<path d="M66.0001 4.7155
L65.9524 4.7631
" />
<path d="M65.9524 4.7631
L65.9048 4.8583
" />
<path d="M66.9048 5.6679
L66.9048 5.8583
" />
<path d="M66.9048 5.8583
L66.8572 5.9536
" />
<path d="M66.8572 5.9536
L66.8096 6.0012
" />
<path d="M66.8096 6.0012
L66.6667 6.0964
" />
<path d="M66.6667 6.0964
L66.4762 6.1440
" />
<path d="M66.4762 6.1440
L66.0953 6.1440
" />
<path d="M66.0953 6.1440
L66.0001 6.0964
" />
<path d="M66.0001 6.0964
L65.9524 6.0488
" />
<path d="M65.9524 6.0488
L65.9048 5.9536
" />
<path d="M65.9048 5.9536
L65.9048 5.7631
" />
<path d="M65.9048 5.7631
L65.9524 5.6679
" />
<path d="M65.9524 5.6679
L66.0001 5.6202
" />
<path d="M66.0001 5.6202
L66.0953 5.5726
" />
<path d="M66.0953 5.5726
L66.3334 5.5726
" />
<path d="M66.3334 5.5726
L66.4286 5.6202
" />
<path d="M66.4286 5.6202
L66.4762 5.6679
" />
<path d="M66.4762 5.6679
L66.5239 5.7631
" />
<path d="M66.5239 5.7631
L66.5239 5.9536
" />
<path d="M66.5239 5.9536
L66.4762 6.0488
" />
<path d="M66.4762 6.0488
L66.4286 6.0964
" />
<path d="M66.4286 6.0964
L66.3334 6.1440
" />
</g><g transform="rotate(-90.000000 10.4500 43.6250)">
<text x="10.4500" y="44.1250"
transform="scale(-1 1) translate(-20.900000 0)"
textLength="3.8690" font-size="1.3333" lengthAdjust="spacingAndGlyphs"
text-anchor="middle" opacity="0">J107</text>
</g>
<g class="stroked-text"><desc>J107</desc>
<path d="M9.9048 42.3393
L10.6191 42.3393
" />
<path d="M10.6191 42.3393
L10.7620 42.2917
" />
<path d="M10.7620 42.2917
L10.8572 42.1964
" />
<path d="M10.8572 42.1964
L10.9048 42.0536
" />
<path d="M10.9048 42.0536
L10.9048 41.9583
" />
<path d="M10.9048 43.3393
L10.9048 42.7679
" />
<path d="M10.9048 43.0536
L9.9048 43.0536
" />
<path d="M9.9048 43.0536
L10.0477 42.9583
" />
<path d="M10.0477 42.9583
L10.1429 42.8631
" />
<path d="M10.1429 42.8631
L10.1905 42.7679
" />
<path d="M9.9048 43.9583
L9.9048 44.0536
" />
<path d="M9.9048 44.0536
L9.9524 44.1488
" />
<path d="M9.9524 44.1488
L10.0001 44.1964
" />
<path d="M10.0001 44.1964
L10.0953 44.2440
" />
<path d="M10.0953 44.2440
L10.2858 44.2917
" />
<path d="M10.2858 44.2917
L10.5239 44.2917
" />
<path d="M10.5239 44.2917
L10.7143 44.2440
" />
<path d="M10.7143 44.2440
L10.8096 44.1964
" />
<path d="M10.8096 44.1964
L10.8572 44.1488
" />
<path d="M10.8572 44.1488
L10.9048 44.0536
" />
<path d="M10.9048 44.0536
L10.9048 43.9583
" />
<path d="M10.9048 43.9583
L10.8572 43.8631
" />
<path d="M10.8572 43.8631
L10.8096 43.8155
" />
<path d="M10.8096 43.8155
L10.7143 43.7679
" />
<path d="M10.7143 43.7679
L10.5239 43.7202
" />
<path d="M10.5239 43.7202
L10.2858 43.7202
" />
<path d="M10.2858 43.7202
L10.0953 43.7679
" />
<path d="M10.0953 43.7679
L10.0001 43.8155
" />
<path d="M10.0001 43.8155
L9.9524 43.8631
" />
<path d="M9.9524 43.8631
L9.9048 43.9583
" />
<path d="M9.9048 44.6250
L9.9048 45.2917
" />
<path d="M9.9048 45.2917
L10.9048 44.8631
" />
</g><g transform="rotate(-90.000000 10.4500 9.1250)">
<text x="10.4500" y="9.6250"
transform="scale(-1 1) translate(-20.900000 0)"
textLength="3.8690" font-size="1.3333" lengthAdjust="spacingAndGlyphs"
text-anchor="middle" opacity="0">J108</text>
</g>
<g class="stroked-text"><desc>J108</desc>
<path d="M9.9048 7.8393
L10.6191 7.8393
" />
<path d="M10.6191 7.8393
L10.7620 7.7917
" />
<path d="M10.7620 7.7917
L10.8572 7.6964
" />
<path d="M10.8572 7.6964
L10.9048 7.5536
" />
<path d="M10.9048 7.5536
L10.9048 7.4583
" />
<path d="M10.9048 8.8393
L10.9048 8.2679
" />
<path d="M10.9048 8.5536
L9.9048 8.5536
" />
<path d="M9.9048 8.5536
L10.0477 8.4583
" />
<path d="M10.0477 8.4583
L10.1429 8.3631
" />
<path d="M10.1429 8.3631
L10.1905 8.2679
" />
<path d="M9.9048 9.4583
L9.9048 9.5536
" />
<path d="M9.9048 9.5536
L9.9524 9.6488
" />
<path d="M9.9524 9.6488
L10.0001 9.6964
" />
<path d="M10.0001 9.6964
L10.0953 9.7440
" />
<path d="M10.0953 9.7440
L10.2858 9.7917
" />
<path d="M10.2858 9.7917
L10.5239 9.7917
" />
<path d="M10.5239 9.7917
L10.7143 9.7440
" />
<path d="M10.7143 9.7440
L10.8096 9.6964
" />
<path d="M10.8096 9.6964
L10.8572 9.6488
" />
<path d="M10.8572 9.6488
L10.9048 9.5536
" />
<path d="M10.9048 9.5536
L10.9048 9.4583
" />
<path d="M10.9048 9.4583
L10.8572 9.3631
" />
<path d="M10.8572 9.3631
L10.8096 9.3155
" />
<path d="M10.8096 9.3155
L10.7143 9.2679
" />
<path d="M10.7143 9.2679
L10.5239 9.2202
" />
<path d="M10.5239 9.2202
L10.2858 9.2202
" />
<path d="M10.2858 9.2202
L10.0953 9.2679
" />
<path d="M10.0953 9.2679
L10.0001 9.3155
" />
<path d="M10.0001 9.3155
L9.9524 9.3631
" />
<path d="M9.9524 9.3631
L9.9048 9.4583
" />
<path d="M10.3334 10.3631
L10.2858 10.2679
" />
<path d="M10.2858 10.2679
L10.2382 10.2202
" />
<path d="M10.2382 10.2202
L10.1429 10.1726
" />
<path d="M10.1429 10.1726
L10.0953 10.1726
" />
<path d="M10.0953 10.1726
L10.0001 10.2202
" />
<path d="M10.0001 10.2202
L9.9524 10.2679
" />
<path d="M9.9524 10.2679
L9.9048 10.3631
" />
<path d="M9.9048 10.3631
L9.9048 10.5536
" />
<path d="M9.9048 10.5536
L9.9524 10.6488
" />
<path d="M9.9524 10.6488
L10.0001 10.6964
" />
<path d="M10.0001 10.6964
L10.0953 10.7440
" />
<path d="M10.0953 10.7440
L10.1429 10.7440
" />
<path d="M10.1429 10.7440
L10.2382 10.6964
" />
<path d="M10.2382 10.6964
L10.2858 10.6488
" />
<path d="M10.2858 10.6488
L10.3334 10.5536
" />
<path d="M10.3334 10.5536
L10.3334 10.3631
" />
<path d="M10.3334 10.3631
L10.3810 10.2679
" />
<path d="M10.3810 10.2679
L10.4286 10.2202
" />
<path d="M10.4286 10.2202
L10.5239 10.1726
" />
<path d="M10.5239 10.1726
L10.7143 10.1726
" />
<path d="M10.7143 10.1726
L10.8096 10.2202
" />
<path d="M10.8096 10.2202
L10.8572 10.2679
" />
<path d="M10.8572 10.2679
L10.9048 10.3631
" />
<path d="M10.9048 10.3631
L10.9048 10.5536
" />
<path d="M10.9048 10.5536
L10.8572 10.6488
" />
<path d="M10.8572 10.6488
L10.8096 10.6964
" />
<path d="M10.8096 10.6964
L10.7143 10.7440
" />
<path d="M10.7143 10.7440
L10.5239 10.7440
" />
<path d="M10.5239 10.7440
L10.4286 10.6964
" />
<path d="M10.4286 10.6964
L10.3810 10.6488
" />
<path d="M10.3810 10.6488
L10.3334 10.5536
" />
</g></g>
<g style="fill:none; 
stroke:#E8B2A7; stroke-width:0.1200; stroke-opacity:1; 
stroke-linecap:round; stroke-linejoin:round;">
<path d="M40.2500 7.6150
L41.5000 7.6150
" />
<path d="M40.2500 9.6150
L40.2500 7.6150
" />
<path d="M40.6400 8.0050
L40.6400 17.2350
" />
<path d="M40.6400 17.2350
L48.1100 17.2350
" />
<path d="M41.6000 9.2150
L42.6000 9.4650
" />
<path d="M41.6000 12.2150
L41.6000 9.2150
" />
<path d="M41.6000 13.0250
L42.6000 13.2750
" />
<path d="M41.6000 16.0250
L41.6000 13.0250
" />
<path d="M42.6000 9.4650
L42.6000 9.9650
" />
<path d="M42.6000 9.9650
L42.9500 9.9650
" />
<path d="M42.6000 11.4650
L42.6000 11.9650
" />
<path d="M42.6000 11.9650
L41.6000 12.2150
" />
<path d="M42.6000 13.2750
L42.6000 13.7750
" />
<path d="M42.6000 13.7750
L42.9500 13.7750
" />
<path d="M42.6000 15.2750
L42.6000 15.7750
" />
<path d="M42.6000 15.7750
L41.6000 16.0250
" />
<path d="M42.9500 9.2150
L47.2500 9.2150
" />
<path d="M42.9500 9.9650
L42.9500 9.2150
" />
<path d="M42.9500 11.4650
L42.6000 11.4650
" />
<path d="M42.9500 12.2150
L42.9500 11.4650
" />
<path d="M42.9500 13.0250
L47.2500 13.0250
" />
<path d="M42.9500 13.7750
L42.9500 13.0250
" />
<path d="M42.9500 15.2750
L42.6000 15.2750
" />
<path d="M42.9500 16.0250
L42.9500 15.2750
" />
<path d="M47.2500 9.2150
L47.2500 9.9650
" />
<path d="M47.2500 11.4650
L47.2500 12.2150
" />
<path d="M47.2500 12.2150
L42.9500 12.2150
" />
<path d="M47.2500 13.0250
L47.2500 13.7750
" />
<path d="M47.2500 15.2750
L47.2500 16.0250
" />
<path d="M47.2500 16.0250
L42.9500 16.0250
" />
<path d="M48.1100 8.0050
L40.6400 8.0050
" />
<path d="M48.1100 17.2350
L48.1100 8.0050
" />
<path d="M47.2500 9.9650 A1.8581 1.8581 0.0 0 0 47.2498 11.4646" />
<path d="M47.2500 13.7750 A1.8581 1.8581 0.0 0 0 47.2498 15.2746" />
<path d="M1.8900 16.0050
L1.8900 25.2350
" />
<path d="M1.8900 25.2350
L9.3600 25.2350
" />
<path d="M2.7500 17.2150
L7.0500 17.2150
" />
<path d="M2.7500 17.9650
L2.7500 17.2150
" />
<path d="M2.7500 20.2150
L2.7500 19.4650
" />
<path d="M2.7500 21.0250
L7.0500 21.0250
" />
<path d="M2.7500 21.7750
L2.7500 21.0250
" />
<path d="M2.7500 24.0250
L2.7500 23.2750
" />
<path d="M7.0500 17.2150
L7.0500 17.9650
" />
<path d="M7.0500 17.9650
L7.4000 17.9650
" />
<path d="M7.0500 19.4650
L7.0500 20.2150
" />
<path d="M7.0500 20.2150
L2.7500 20.2150
" />
<path d="M7.0500 21.0250
L7.0500 21.7750
" />
<path d="M7.0500 21.7750
L7.4000 21.7750
" />
<path d="M7.0500 23.2750
L7.0500 24.0250
" />
<path d="M7.0500 24.0250
L2.7500 24.0250
" />
<path d="M7.4000 17.4650
L8.4000 17.2150
" />
<path d="M7.4000 17.9650
L7.4000 17.4650
" />
<path d="M7.4000 19.4650
L7.0500 19.4650
" />
<path d="M7.4000 19.9650
L7.4000 19.4650
" />
<path d="M7.4000 21.2750
L8.4000 21.0250
" />
<path d="M7.4000 21.7750
L7.4000 21.2750
" />
<path d="M7.4000 23.2750
L7.0500 23.2750
" />
<path d="M7.4000 23.7750
L7.4000 23.2750
" />
<path d="M8.4000 17.2150
L8.4000 20.2150
" />
<path d="M8.4000 20.2150
L7.4000 19.9650
" />
<path d="M8.4000 21.0250
L8.4000 24.0250
" />
<path d="M8.4000 24.0250
L7.4000 23.7750
" />
<path d="M9.3600 16.0050
L1.8900 16.0050
" />
<path d="M9.3600 25.2350
L9.3600 16.0050
" />
<path d="M9.7500 23.6250
L9.7500 25.6250
" />
<path d="M9.7500 25.6250
L8.5000 25.6250
" />
<path d="M2.7500 19.4650 A1.8581 1.8581 0.0 0 0 2.7502 17.9654" />
<path d="M2.7500 23.2750 A1.8581 1.8581 0.0 0 0 2.7502 21.7754" />
<path d="M41.3300 3.4650
L41.3300 5.5850
" />
<path d="M41.3300 3.4650
L45.3900 3.4650
" />
<path d="M41.3300 5.5850
L45.3900 5.5850
" />
<path d="M45.3900 3.4650
L45.3900 5.5850
" />
<path d="M47.4500 4.5250
L47.4500 5.5850
" />
<path d="M47.4500 5.5850
L46.3900 5.5850
" />
<path d="M67.4400 74.9650
L67.4400 77.0850
" />
<path d="M67.4400 74.9650
L71.5000 74.9650
" />
<path d="M67.4400 77.0850
L71.5000 77.0850
" />
<path d="M71.5000 74.9650
L71.5000 77.0850
" />
<path d="M73.5600 76.0250
L73.5600 77.0850
" />
<path d="M73.5600 77.0850
L72.5000 77.0850
" />
<path d="M19.3900 25.0150
L19.3900 22.5250
" />
<path d="M19.3900 28.2900
L19.3900 25.0150
" />
<path d="M19.3900 36.7600
L19.3900 28.2900
" />
<path d="M19.3900 40.0350
L19.3900 36.7600
" />
<path d="M19.3900 40.0350
L19.3900 42.5250
" />
<path d="M19.8100 21.4350
L19.8100 21.9453
" />
<path d="M21.9300 21.4350
L21.9300 21.9150
" />
<path d="M22.3500 21.9150
L21.9300 21.9150
" />
<path d="M22.3500 43.1350
L21.9300 43.1350
" />
<path d="M24.8900 21.9150
L24.4700 21.9150
" />
<path d="M24.8900 43.1350
L24.4700 43.1350
" />
<path d="M27.4300 21.9150
L27.0100 21.9150
" />
<path d="M27.4300 43.1350
L27.0100 43.1350
" />
<path d="M29.9700 21.9150
L29.5500 21.9150
" />
<path d="M29.9700 43.1350
L29.5500 43.1350
" />
<path d="M32.5100 21.9150
L32.0900 21.9150
" />
<path d="M32.5100 43.1350
L32.0900 43.1350
" />
<path d="M35.0500 21.9150
L34.6300 21.9150
" />
<path d="M35.0500 43.1350
L34.6300 43.1350
" />
<path d="M37.5900 21.9150
L37.1700 21.9150
" />
<path d="M37.5900 43.1350
L37.1700 43.1350
" />
<path d="M40.1300 21.9150
L39.7100 21.9150
" />
<path d="M40.1300 43.1350
L39.7100 43.1350
" />
<path d="M42.6700 21.9150
L42.2500 21.9150
" />
<path d="M42.6700 43.1350
L42.2500 43.1350
" />
<path d="M45.2100 21.9150
L44.7900 21.9150
" />
<path d="M45.2100 43.1350
L44.7900 43.1350
" />
<path d="M47.7500 21.9150
L47.3300 21.9150
" />
<path d="M47.7500 43.1350
L47.3300 43.1350
" />
<path d="M50.2900 21.9150
L49.8700 21.9150
" />
<path d="M50.2900 43.1350
L49.8700 43.1350
" />
<path d="M52.8300 21.9150
L52.4100 21.9150
" />
<path d="M52.8300 43.1350
L52.4100 43.1350
" />
<path d="M55.3700 21.9150
L54.9500 21.9150
" />
<path d="M55.3700 43.1350
L54.9500 43.1350
" />
<path d="M57.9100 21.9150
L57.4900 21.9150
" />
<path d="M57.9100 43.1350
L57.4900 43.1350
" />
<path d="M60.4500 21.9150
L60.0300 21.9150
" />
<path d="M60.4500 43.1350
L60.0300 43.1350
" />
<path d="M62.9900 21.9150
L62.5700 21.9150
" />
<path d="M62.9900 43.1350
L62.5700 43.1350
" />
<path d="M65.5300 21.9150
L65.1100 21.9150
" />
<path d="M65.5300 43.1350
L65.1100 43.1350
" />
<path d="M68.0700 21.9150
L67.6500 21.9150
" />
<path d="M68.0700 43.1350
L67.6500 43.1350
" />
<path d="M19.8100 21.9453 A0.6101 0.6101 0.0 0 0 19.3900 22.5250" />
<path d="M19.3900 42.5250 A0.6100 0.6100 0.0 0 0 19.8101 43.1047" />
<path d="M70.4900 22.1617 A0.6100 0.6100 0.0 0 0 70.1899 21.9453" />
<path d="M70.1899 43.1047 A0.6100 0.6100 0.0 0 0 70.4900 42.8883" />
<circle cx="21.5000" cy="26.8250" r="0.9400" /> 
<circle cx="21.5000" cy="38.2250" r="0.9400" /> 
<path d="M58.4400 74.9650
L58.4400 77.0850
" />
<path d="M58.4400 74.9650
L62.5000 74.9650
" />
<path d="M58.4400 77.0850
L62.5000 77.0850
" />
<path d="M62.5000 74.9650
L62.5000 77.0850
" />
<path d="M64.5600 76.0250
L64.5600 77.0850
" />
<path d="M64.5600 77.0850
L63.5000 77.0850
" />
<path d="M50.2500 7.6150
L51.5000 7.6150
" />
<path d="M50.2500 9.6150
L50.2500 7.6150
" />
<path d="M50.6400 8.0050
L50.6400 17.2350
" />
<path d="M50.6400 17.2350
L58.1100 17.2350
" />
<path d="M51.6000 9.2150
L52.6000 9.4650
" />
<path d="M51.6000 12.2150
L51.6000 9.2150
" />
<path d="M51.6000 13.0250
L52.6000 13.2750
" />
<path d="M51.6000 16.0250
L51.6000 13.0250
" />
<path d="M52.6000 9.4650
L52.6000 9.9650
" />
<path d="M52.6000 9.9650
L52.9500 9.9650
" />
<path d="M52.6000 11.4650
L52.6000 11.9650
" />
<path d="M52.6000 11.9650
L51.6000 12.2150
" />
<path d="M52.6000 13.2750
L52.6000 13.7750
" />
<path d="M52.6000 13.7750
L52.9500 13.7750
" />
<path d="M52.6000 15.2750
L52.6000 15.7750
" />
<path d="M52.6000 15.7750
L51.6000 16.0250
" />
<path d="M52.9500 9.2150
L57.2500 9.2150
" />
<path d="M52.9500 9.9650
L52.9500 9.2150
" />
<path d="M52.9500 11.4650
L52.6000 11.4650
" />
<path d="M52.9500 12.2150
L52.9500 11.4650
" />
<path d="M52.9500 13.0250
L57.2500 13.0250
" />
<path d="M52.9500 13.7750
L52.9500 13.0250
" />
<path d="M52.9500 15.2750
L52.6000 15.2750
" />
<path d="M52.9500 16.0250
L52.9500 15.2750
" />
<path d="M57.2500 9.2150
L57.2500 9.9650
" />
<path d="M57.2500 11.4650
L57.2500 12.2150
" />
<path d="M57.2500 12.2150
L52.9500 12.2150
" />
<path d="M57.2500 13.0250
L57.2500 13.7750
" />
<path d="M57.2500 15.2750
L57.2500 16.0250
" />
<path d="M57.2500 16.0250
L52.9500 16.0250
" />
<path d="M58.1100 8.0050
L50.6400 8.0050
" />
<path d="M58.1100 17.2350
L58.1100 8.0050
" />
<path d="M57.2500 9.9650 A1.8581 1.8581 0.0 0 0 57.2498 11.4646" />
<path d="M57.2500 13.7750 A1.8581 1.8581 0.0 0 0 57.2498 15.2746" />
<path d="M50.3300 3.4650
L50.3300 5.5850
" />
<path d="M50.3300 3.4650
L54.3900 3.4650
" />
<path d="M50.3300 5.5850
L54.3900 5.5850
" />
<path d="M54.3900 3.4650
L54.3900 5.5850
" />
<path d="M56.4500 4.5250
L56.4500 5.5850
" />
<path d="M56.4500 5.5850
L55.3900 5.5850
" />
<path d="M1.8675 64.8350
L1.8675 77.2150
" />
<path d="M1.8675 77.2150
L10.6875 77.2150
" />
<path d="M3.5775 65.7450
L8.8775 65.7450
" />
<path d="M3.5775 66.4850
L3.5775 65.7450
" />
<path d="M3.5775 70.4850
L3.5775 71.5650
" />
<path d="M3.5775 76.3050
L3.5775 75.5650
" />
<path d="M8.8775 65.7450
L8.8775 76.3050
" />
<path d="M8.8775 67.4850
L10.6875 67.4850
" />
<path d="M8.8775 69.4850
L8.8775 67.4850
" />
<path d="M8.8775 72.5650
L10.6875 72.5650
" />
<path d="M8.8775 74.5650
L8.8775 72.5650
" />
<path d="M8.8775 76.3050
L3.5775 76.3050
" />
<path d="M9.8775 67.3750
L9.8775 64.8350
" />
<path d="M9.8775 69.4850
L9.8775 72.5650
" />
<path d="M9.8775 74.6750
L9.8775 77.2150
" />
<path d="M10.6875 64.8350
L1.8675 64.8350
" />
<path d="M10.6875 67.4850
L10.6875 69.4850
" />
<path d="M10.6875 69.4850
L8.8775 69.4850
" />
<path d="M10.6875 72.5650
L10.6875 74.5650
" />
<path d="M10.6875 74.5650
L8.8775 74.5650
" />
<path d="M10.6875 77.2150
L10.6875 64.8350
" />
<path d="M10.8875 73.5650
L11.4875 73.2650
" />
<path d="M11.4875 73.2650
L11.4875 73.8650
" />
<path d="M11.4875 73.8650
L10.8875 73.5650
" />
<path d="M3.5617 66.4982 A2.5928 2.5928 0.0 0 0 3.5775 70.4850" />
<path d="M3.5617 71.5782 A2.5928 2.5928 0.0 0 0 3.5775 75.5650" />
<path d="M70.2500 62.5375
L71.5000 62.5375
" />
<path d="M70.2500 64.5375
L70.2500 62.5375
" />
<path d="M70.6400 62.9275
L70.6400 72.1575
" />
<path d="M70.6400 72.1575
L78.1100 72.1575
" />
<path d="M71.6000 64.1375
L72.6000 64.3875
" />
<path d="M71.6000 67.1375
L71.6000 64.1375
" />
<path d="M71.6000 67.9475
L72.6000 68.1975
" />
<path d="M71.6000 70.9475
L71.6000 67.9475
" />
<path d="M72.6000 64.3875
L72.6000 64.8875
" />
<path d="M72.6000 64.8875
L72.9500 64.8875
" />
<path d="M72.6000 66.3875
L72.6000 66.8875
" />
<path d="M72.6000 66.8875
L71.6000 67.1375
" />
<path d="M72.6000 68.1975
L72.6000 68.6975
" />
<path d="M72.6000 68.6975
L72.9500 68.6975
" />
<path d="M72.6000 70.1975
L72.6000 70.6975
" />
<path d="M72.6000 70.6975
L71.6000 70.9475
" />
<path d="M72.9500 64.1375
L77.2500 64.1375
" />
<path d="M72.9500 64.8875
L72.9500 64.1375
" />
<path d="M72.9500 66.3875
L72.6000 66.3875
" />
<path d="M72.9500 67.1375
L72.9500 66.3875
" />
<path d="M72.9500 67.9475
L77.2500 67.9475
" />
<path d="M72.9500 68.6975
L72.9500 67.9475
" />
<path d="M72.9500 70.1975
L72.6000 70.1975
" />
<path d="M72.9500 70.9475
L72.9500 70.1975
" />
<path d="M77.2500 64.1375
L77.2500 64.8875
" />
<path d="M77.2500 66.3875
L77.2500 67.1375
" />
<path d="M77.2500 67.1375
L72.9500 67.1375
" />
<path d="M77.2500 67.9475
L77.2500 68.6975
" />
<path d="M77.2500 70.1975
L77.2500 70.9475
" />
<path d="M77.2500 70.9475
L72.9500 70.9475
" />
<path d="M78.1100 62.9275
L70.6400 62.9275
" />
<path d="M78.1100 72.1575
L78.1100 62.9275
" />
<path d="M77.2500 64.8875 A1.8581 1.8581 0.0 0 0 77.2498 66.3871" />
<path d="M77.2500 68.6975 A1.8581 1.8581 0.0 0 0 77.2498 70.1971" />
<path d="M49.4400 74.9650
L49.4400 77.0850
" />
<path d="M49.4400 74.9650
L53.5000 74.9650
" />
<path d="M49.4400 77.0850
L53.5000 77.0850
" />
<path d="M53.5000 74.9650
L53.5000 77.0850
" />
<path d="M55.5600 76.0250
L55.5600 77.0850
" />
<path d="M55.5600 77.0850
L54.5000 77.0850
" />
<path d="M59.3300 3.4650
L59.3300 5.5850
" />
<path d="M59.3300 3.4650
L63.3900 3.4650
" />
<path d="M59.3300 5.5850
L63.3900 5.5850
" />
<path d="M63.3900 3.4650
L63.3900 5.5850
" />
<path d="M65.4500 4.5250
L65.4500 5.5850
" />
<path d="M65.4500 5.5850
L64.3900 5.5850
" />
<path d="M1.8900 39.0050
L1.8900 48.2350
" />
<path d="M1.8900 48.2350
L9.3600 48.2350
" />
<path d="M2.7500 40.2150
L7.0500 40.2150
" />
<path d="M2.7500 40.9650
L2.7500 40.2150
" />
<path d="M2.7500 43.2150
L2.7500 42.4650
" />
<path d="M2.7500 44.0250
L7.0500 44.0250
" />
<path d="M2.7500 44.7750
L2.7500 44.0250
" />
<path d="M2.7500 47.0250
L2.7500 46.2750
" />
<path d="M7.0500 40.2150
L7.0500 40.9650
" />
<path d="M7.0500 40.9650
L7.4000 40.9650
" />
<path d="M7.0500 42.4650
L7.0500 43.2150
" />
<path d="M7.0500 43.2150
L2.7500 43.2150
" />
<path d="M7.0500 44.0250
L7.0500 44.7750
" />
<path d="M7.0500 44.7750
L7.4000 44.7750
" />
<path d="M7.0500 46.2750
L7.0500 47.0250
" />
<path d="M7.0500 47.0250
L2.7500 47.0250
" />
<path d="M7.4000 40.4650
L8.4000 40.2150
" />
<path d="M7.4000 40.9650
L7.4000 40.4650
" />
<path d="M7.4000 42.4650
L7.0500 42.4650
" />
<path d="M7.4000 42.9650
L7.4000 42.4650
" />
<path d="M7.4000 44.2750
L8.4000 44.0250
" />
<path d="M7.4000 44.7750
L7.4000 44.2750
" />
<path d="M7.4000 46.2750
L7.0500 46.2750
" />
<path d="M7.4000 46.7750
L7.4000 46.2750
" />
<path d="M8.4000 40.2150
L8.4000 43.2150
" />
<path d="M8.4000 43.2150
L7.4000 42.9650
" />
<path d="M8.4000 44.0250
L8.4000 47.0250
" />
<path d="M8.4000 47.0250
L7.4000 46.7750
" />
<path d="M9.3600 39.0050
L1.8900 39.0050
" />
<path d="M9.3600 48.2350
L9.3600 39.0050
" />
<path d="M9.7500 46.6250
L9.7500 48.6250
" />
<path d="M9.7500 48.6250
L8.5000 48.6250
" />
<path d="M2.7500 42.4650 A1.8581 1.8581 0.0 0 0 2.7502 40.9654" />
<path d="M2.7500 46.2750 A1.8581 1.8581 0.0 0 0 2.7502 44.7754" />
<path d="M1.8900 5.0050
L1.8900 14.2350
" />
<path d="M1.8900 14.2350
L9.3600 14.2350
" />
<path d="M2.7500 6.2150
L7.0500 6.2150
" />
<path d="M2.7500 6.9650
L2.7500 6.2150
" />
<path d="M2.7500 9.2150
L2.7500 8.4650
" />
<path d="M2.7500 10.0250
L7.0500 10.0250
" />
<path d="M2.7500 10.7750
L2.7500 10.0250
" />
<path d="M2.7500 13.0250
L2.7500 12.2750
" />
<path d="M7.0500 6.2150
L7.0500 6.9650
" />
<path d="M7.0500 6.9650
L7.4000 6.9650
" />
<path d="M7.0500 8.4650
L7.0500 9.2150
" />
<path d="M7.0500 9.2150
L2.7500 9.2150
" />
<path d="M7.0500 10.0250
L7.0500 10.7750
" />
<path d="M7.0500 10.7750
L7.4000 10.7750
" />
<path d="M7.0500 12.2750
L7.0500 13.0250
" />
<path d="M7.0500 13.0250
L2.7500 13.0250
" />
<path d="M7.4000 6.4650
L8.4000 6.2150
" />
<path d="M7.4000 6.9650
L7.4000 6.4650
" />
<path d="M7.4000 8.4650
L7.0500 8.4650
" />
<path d="M7.4000 8.9650
L7.4000 8.4650
" />
<path d="M7.4000 10.2750
L8.4000 10.0250
" />
<path d="M7.4000 10.7750
L7.4000 10.2750
" />
<path d="M7.4000 12.2750
L7.0500 12.2750
" />
<path d="M7.4000 12.7750
L7.4000 12.2750
" />
<path d="M8.4000 6.2150
L8.4000 9.2150
" />
<path d="M8.4000 9.2150
L7.4000 8.9650
" />
<path d="M8.4000 10.0250
L8.4000 13.0250
" />
<path d="M8.4000 13.0250
L7.4000 12.7750
" />
<path d="M9.3600 5.0050
L1.8900 5.0050
" />
<path d="M9.3600 14.2350
L9.3600 5.0050
" />
<path d="M9.7500 12.6250
L9.7500 14.6250
" />
<path d="M9.7500 14.6250
L8.5000 14.6250
" />
<path d="M2.7500 8.4650 A1.8581 1.8581 0.0 0 0 2.7502 6.9654" />
<path d="M2.7500 12.2750 A1.8581 1.8581 0.0 0 0 2.7502 10.7754" />
</g>
<g style="fill:none; 
stroke:#26E9FF; stroke-width:0.0500; stroke-opacity:1; 
stroke-linecap:round; stroke-linejoin:round;">
<path d="M40.2500 7.6150
L40.2500 17.6250
" />
<path d="M40.2500 17.6250
L48.5000 17.6250
" />
<path d="M48.5000 7.6150
L40.2500 7.6150
" />
<path d="M48.5000 17.6250
L48.5000 7.6150
" />
<path d="M1.5000 15.6150
L1.5000 25.6250
" />
<path d="M1.5000 25.6250
L9.7500 25.6250
" />
<path d="M9.7500 15.6150
L1.5000 15.6150
" />
<path d="M9.7500 25.6250
L9.7500 15.6150
" />
<path d="M40.8900 3.0250
L40.8900 6.0250
" />
<path d="M40.8900 6.0250
L47.8900 6.0250
" />
<path d="M47.8900 3.0250
L40.8900 3.0250
" />
<path d="M47.8900 6.0250
L47.8900 3.0250
" />
<path d="M67.0000 74.5250
L67.0000 77.5250
" />
<path d="M67.0000 77.5250
L74.0000 77.5250
" />
<path d="M74.0000 74.5250
L67.0000 74.5250
" />
<path d="M74.0000 77.5250
L74.0000 74.5250
" />
<path style="fill:none; 
stroke:#26E9FF; stroke-width:0.0500; stroke-opacity:1; 
stroke-linecap:round; stroke-linejoin:round;fill:none"
d="M 71.5500,44.0650
19.2500,44.0650
19.2500,37.0250
17.6000,37.0250
17.6000,28.0250
19.2500,28.0250
19.2500,20.9850
71.5500,20.9850
Z" /> 
<path d="M58.0000 74.5250
L58.0000 77.5250
" />
<path d="M58.0000 77.5250
L65.0000 77.5250
" />
<path d="M65.0000 74.5250
L58.0000 74.5250
" />
<path d="M65.0000 77.5250
L65.0000 74.5250
" />
<path d="M50.2500 7.6150
L50.2500 17.6250
" />
<path d="M50.2500 17.6250
L58.5000 17.6250
" />
<path d="M58.5000 7.6150
L50.2500 7.6150
" />
<path d="M58.5000 17.6250
L58.5000 7.6150
" />
<path d="M49.8900 3.0250
L49.8900 6.0250
" />
<path d="M49.8900 6.0250
L56.8900 6.0250
" />
<path d="M56.8900 3.0250
L49.8900 3.0250
" />
<path d="M56.8900 6.0250
L56.8900 3.0250
" />
<path d="M1.4775 64.4450
L1.4775 77.6050
" />
<path d="M1.4775 77.6050
L11.0775 77.6050
" />
<path d="M11.0775 64.4450
L1.4775 64.4450
" />
<path d="M11.0775 77.6050
L11.0775 64.4450
" />
<path d="M70.2500 62.5375
L70.2500 72.5475
" />
<path d="M70.2500 72.5475
L78.5000 72.5475
" />
<path d="M78.5000 62.5375
L70.2500 62.5375
" />
<path d="M78.5000 72.5475
L78.5000 62.5375
" />
<path d="M49.0000 74.5250
L49.0000 77.5250
" />
<path d="M49.0000 77.5250
L56.0000 77.5250
" />
<path d="M56.0000 74.5250
L49.0000 74.5250
" />
<path d="M56.0000 77.5250
L56.0000 74.5250
" />
<path d="M58.8900 3.0250
L58.8900 6.0250
" />
<path d="M58.8900 6.0250
L65.8900 6.0250
" />
<path d="M65.8900 3.0250
L58.8900 3.0250
" />
<path d="M65.8900 6.0250
L65.8900 3.0250
" />
<path d="M1.5000 38.6150
L1.5000 48.6250
" />
<path d="M1.5000 48.6250
L9.7500 48.6250
" />
<path d="M9.7500 38.6150
L1.5000 38.6150
" />
<path d="M9.7500 48.6250
L9.7500 38.6150
" />
<path d="M1.5000 4.6150
L1.5000 14.6250
" />
<path d="M1.5000 14.6250
L9.7500 14.6250
" />
<path d="M9.7500 4.6150
L1.5000 4.6150
" />
<path d="M9.7500 14.6250
L9.7500 4.6150
" />
</g>
<g style="fill:none; 
stroke:#D0D2CD; stroke-width:0.0500; stroke-opacity:1; 
stroke-linecap:round; stroke-linejoin:round;">
<path d="M69.5000 25.5250
L63.0000 25.5250
" />
<path d="M6.0000 0.0250 A5.0000 5.0000 0.0 0 0 1.0000 5.0250" />
<path d="M70.5000 40.5250 A1.0000 1.0000 0.0 0 0 69.5000 39.5250" />
<path d="M69.5000 25.5250 A1.0000 1.0000 0.0 0 0 70.5000 24.5250" />
<path d="M63.0000 39.5250
L69.5000 39.5250
" />
<path d="M80.0000 59.0250 A5.0000 5.0000 0.0 0 0 75.0000 54.0250" />
<path d="M80.0000 5.0250 A5.0000 5.0000 0.0 0 0 75.0000 0.0250" />
<path d="M70.5000 49.5250
L70.5000 40.5250
" />
<path d="M75.0000 11.0250 A5.0000 5.0000 0.0 0 0 80.0000 6.0250" />
<path d="M80.0001 74.9895
L80.0000 59.0250
" />
<path d="M70.5000 15.5250
L70.5000 24.5250
" />
<path d="M75.0000 0.0250
L6.0000 0.0250
" />
<path d="M63.0000 25.5250 A1.0000 1.0000 0.0 0 0 62.0000 26.5250" />
<path d="M1.0000 75.0250 A5.0000 5.0000 0.0 0 0 6.0000 80.0250" />
<path d="M62.0000 38.5250
L62.0000 26.5250
" />
<path d="M70.5000 49.5250 A4.5000 4.5000 0.0 0 0 75.0000 54.0250" />
<path d="M6.0000 80.0250
L75.0000 80.0250
" />
<path d="M75.0000 80.0250 A5.0357 5.0357 0.0 0 0 80.0001 74.9895" />
<path d="M62.0000 38.5250 A1.0000 1.0000 0.0 0 0 63.0000 39.5250" />
<path d="M1.0000 5.0250
L1.0000 75.0250
" />
<path d="M75.0000 11.0250 A4.5000 4.5000 0.0 0 0 70.5000 15.5250" />
<path d="M80.0000 5.0250
L80.0000 6.0250
" />
</g> 
</svg>
